<svg width="280" height="130" viewBox="0 0 280 130" fill="none" xmlns="http://www.w3.org/2000/svg">
<rect width="280" height="130" rx="10" fill="#030C07"/>
<path d="M59.624 78.86C57.536 78.86 55.616 78.68 53.864 78.32C52.112 77.936 50.588 77.264 49.292 76.304C47.996 75.344 46.988 74.012 46.268 72.308C45.572 70.604 45.224 68.42 45.224 65.756C45.224 63.116 45.596 60.944 46.34 59.24C47.084 57.536 48.092 56.204 49.364 55.244C50.66 54.284 52.124 53.612 53.756 53.228C55.388 52.844 57.092 52.652 58.868 52.652C60.044 52.652 61.124 52.712 62.108 52.832C63.092 52.952 63.98 53.108 64.772 53.3L69.668 56.144L67.148 62.48L59.192 60.068C58.16 60.068 57.212 60.236 56.348 60.572C55.484 60.884 54.788 61.46 54.26 62.3C53.756 63.116 53.504 64.28 53.504 65.792C53.504 68.096 53.996 69.716 54.98 70.652C55.988 71.564 57.404 72.02 59.228 72.02C59.924 72.02 60.5 71.984 60.956 71.912C61.412 71.816 61.796 71.708 62.108 71.588V69.608H58.976V63.92H70.424L70.82 66.08L70.028 69.788V77.348C69.764 77.444 69.164 77.612 68.228 77.852C67.316 78.092 66.128 78.32 64.664 78.536C63.2 78.752 61.52 78.86 59.624 78.86ZM77.7118 60.464L72.3838 55.856L77.7118 51.284L83.0398 55.856L77.7118 60.464ZM73.7158 78.5V66.584L72.9598 63.704L73.6798 61.508H81.6358V78.5H73.7158ZM92.4914 78.86C90.3794 78.86 88.8314 78.428 87.8474 77.564C86.8634 76.7 86.3714 75.44 86.3714 73.784V67.016H83.3834V62.516L86.0114 60.752L88.5674 56.288H94.2554V61.508H99.6554V67.268H94.2554V72.812L99.6554 72.776V77.78C99.6554 77.78 99.4394 77.84 99.0074 77.96C98.5754 78.056 97.9994 78.176 97.2794 78.32C96.5834 78.464 95.8154 78.584 94.9754 78.68C94.1354 78.8 93.3074 78.86 92.4914 78.86ZM121.091 78.86C119.771 78.86 118.463 78.74 117.167 78.5C115.895 78.284 114.767 77.996 113.783 77.636C112.799 77.276 112.091 76.916 111.659 76.556V69.032C112.571 69.536 113.591 69.992 114.719 70.4C115.847 70.808 116.987 71.132 118.139 71.372C119.315 71.588 120.431 71.696 121.487 71.696C122.951 71.696 123.683 71.36 123.683 70.688C123.683 70.352 123.527 70.076 123.215 69.86C122.927 69.62 122.411 69.368 121.667 69.104C120.923 68.84 119.867 68.504 118.499 68.096C116.915 67.592 115.559 67.064 114.431 66.512C113.327 65.96 112.475 65.252 111.875 64.388C111.299 63.524 111.011 62.372 111.011 60.932C111.011 58.436 112.007 56.432 113.999 54.92C115.991 53.408 118.907 52.652 122.747 52.652C123.515 52.652 124.331 52.688 125.195 52.76C126.083 52.808 126.791 52.88 127.319 52.976L131.747 55.964L129.947 61.436L120.731 59.096C119.771 59.096 119.291 59.42 119.291 60.068C119.291 60.572 119.591 60.992 120.191 61.328C120.815 61.64 121.931 62.072 123.539 62.624C125.675 63.344 127.367 64.088 128.615 64.856C129.887 65.6 130.799 66.452 131.351 67.412C131.903 68.372 132.179 69.512 132.179 70.832C132.179 73.232 131.255 75.176 129.407 76.664C127.559 78.128 124.787 78.86 121.091 78.86ZM144.304 78.86C142.456 78.86 140.776 78.596 139.264 78.068C137.776 77.516 136.588 76.604 135.7 75.332C134.836 74.036 134.404 72.26 134.404 70.004C134.404 68.42 134.668 67.064 135.196 65.936C135.748 64.808 136.48 63.896 137.392 63.2C138.304 62.48 139.324 61.964 140.452 61.652C141.58 61.316 142.744 61.148 143.944 61.148C145.456 61.148 146.716 61.244 147.724 61.436C148.756 61.628 149.584 61.844 150.208 62.084C150.832 62.324 151.312 62.54 151.648 62.732L153.448 68.456L152.728 70.688H142.288C142.384 71.36 142.732 71.936 143.332 72.416C143.932 72.872 144.976 73.1 146.464 73.1C147.88 73.1 149.056 72.944 149.992 72.632C150.928 72.32 151.6 72.08 152.008 71.912V77.456C151.528 77.72 150.868 77.96 150.028 78.176C149.188 78.392 148.264 78.56 147.256 78.68C146.272 78.8 145.288 78.86 144.304 78.86ZM142.18 68.348L145.852 67.664L145.528 66.512C145.192 66.32 144.784 66.224 144.304 66.224C143.512 66.224 142.948 66.44 142.612 66.872C142.3 67.304 142.156 67.796 142.18 68.348ZM160.449 78.86C158.841 78.86 157.533 78.488 156.525 77.744C155.541 76.976 155.049 75.644 155.049 73.748C155.049 71.996 155.625 70.676 156.777 69.788C157.953 68.876 159.537 68.42 161.529 68.42C162.609 68.42 163.473 68.528 164.121 68.744C164.769 68.936 165.261 69.128 165.597 69.32L165.849 69.14C165.849 68.396 165.717 67.844 165.453 67.484C165.189 67.1 164.553 66.908 163.545 66.908C162.657 66.908 161.745 67.004 160.809 67.196C159.897 67.364 159.033 67.592 158.217 67.88C157.401 68.144 156.705 68.432 156.129 68.744V62.264C156.513 62.144 157.125 62 157.965 61.832C158.805 61.664 159.813 61.52 160.989 61.4C162.165 61.256 163.425 61.184 164.769 61.184C167.025 61.184 168.813 61.46 170.133 62.012C171.453 62.54 172.389 63.32 172.941 64.352C173.517 65.36 173.805 66.572 173.805 67.988V72.776L174.525 76.412L173.805 78.536H166.209V76.772L165.849 76.592C165.465 77.144 164.805 77.66 163.869 78.14C162.957 78.62 161.817 78.86 160.449 78.86ZM164.517 74.144C164.877 74.144 165.177 74.084 165.417 73.964C165.657 73.844 165.801 73.772 165.849 73.748V72.956C165.849 72.596 165.741 72.284 165.525 72.02C165.309 71.756 164.985 71.624 164.553 71.624C164.169 71.624 163.809 71.732 163.473 71.948C163.137 72.14 162.969 72.488 162.969 72.992C162.969 73.76 163.485 74.144 164.517 74.144ZM177.575 78.5V67.232L176.819 63.632L177.575 61.472H183.911L184.631 62.3C184.631 62.3 184.763 62.204 185.027 62.012C185.315 61.796 185.711 61.592 186.215 61.4C186.719 61.208 187.307 61.112 187.979 61.112C188.459 61.112 188.939 61.148 189.419 61.22C189.899 61.292 190.271 61.388 190.535 61.508L194.315 64.928L191.255 69.896L186.503 67.196L185.423 67.556V78.5H177.575ZM204.026 78.86C202.25 78.86 200.63 78.584 199.166 78.032C197.726 77.48 196.586 76.556 195.746 75.26C194.906 73.964 194.486 72.212 194.486 70.004C194.486 68.3 194.774 66.884 195.35 65.756C195.926 64.628 196.682 63.728 197.618 63.056C198.554 62.36 199.574 61.868 200.678 61.58C201.806 61.292 202.922 61.148 204.026 61.148C205.346 61.148 206.462 61.208 207.374 61.328C208.286 61.424 208.934 61.496 209.318 61.544L212.126 64.712L208.886 69.356L204.746 67.268C204.218 67.268 203.75 67.46 203.342 67.844C202.934 68.228 202.73 68.948 202.73 70.004C202.73 71.108 202.97 71.84 203.45 72.2C203.954 72.56 204.626 72.74 205.466 72.74C206.954 72.74 208.238 72.548 209.318 72.164C210.398 71.756 211.202 71.432 211.73 71.192V77.456C210.818 77.912 209.666 78.26 208.274 78.5C206.906 78.74 205.49 78.86 204.026 78.86ZM215.503 78.5V58.772L214.783 55.172L215.503 53.012H223.423V58.844L223.063 62.84L223.423 63.02C223.543 62.9 223.807 62.696 224.215 62.408C224.623 62.096 225.163 61.808 225.835 61.544C226.507 61.256 227.263 61.112 228.103 61.112C230.263 61.112 231.763 61.724 232.603 62.948C233.443 64.172 233.863 65.888 233.863 68.096V72.776L234.619 76.304L233.863 78.5H225.907V69.392C225.907 68.624 225.751 68.084 225.439 67.772C225.127 67.436 224.575 67.268 223.783 67.268L223.423 67.628V78.5H215.503Z" fill="#90E7BC"/>
</svg>
